<svg xmlns="http://www.w3.org/2000/svg" viewBox="0 0 1000 1000"><path d="M152.13 12.53c-27.58 5.36-35.24 9.38-35.24 18.96 0 4.98 6.7 12.45 47.88 54 46.15 46.34 47.88 48.45 47.88 55.54s-1.53 9.19-32.17 39.64c-30.45 30.64-32.56 32.17-39.64 32.17s-9.19-1.72-55.54-47.88c-41.56-41.17-49.03-47.88-54-47.88-3.06 0-7.08 1.53-8.81 3.45-4.98 5.55-11.11 31.98-12.26 54-4.4 83.69 57.07 159.14 141.9 174.07 26.43 4.79 68.37.38 90.2-9.19 4.98-2.3 9.96-4.02 11.11-4.02 2.49 0 152.63 149.56 152.63 152.24 0 .96-67.79 69.52-150.52 152.24-82.73 82.73-153.58 155.12-157.61 160.86-9.58 14.17-88.86 180.78-87.9 185.18.38 1.92 2.11 3.64 4.02 4.02 2.87.57 116.82-52.47 168.91-78.71l19.15-9.58L356.27 747.9c84.83-84.65 155.12-153.97 156.07-153.97 1.15 0 36 34.09 77.56 75.64l75.64 75.64-2.68 6.13c-10.15 24.7-12.26 36.39-12.45 66.64-.19 34.09 2.3 46.34 14.36 72.39 9.38 20.49 20.87 36.39 37.34 52.28 21.83 20.87 46.54 35.05 73.35 42.32 21.07 5.94 63.77 5.75 85.22 0 17.62-4.79 22.21-8.23 22.21-16.28 0-4.98-6.7-12.45-47.88-54-46.15-46.34-47.88-48.45-47.88-55.54 0-7.09 1.53-9.19 32.17-39.64 30.45-30.64 32.55-32.17 39.64-32.17s9.19 1.72 55.54 47.88c41.56 41.17 49.02 47.88 54 47.88 8.04 0 11.49-4.79 15.89-22.21 8.62-32.56 6.51-72.96-5.17-102.07-15.13-37.92-47.3-73.35-82.92-91.16-44.43-22.41-97.67-24.13-145.16-4.6l-6.13 2.68-75.61-75.64c-41.56-41.56-75.65-76.41-75.65-77.56 0-.96 66.07-67.98 146.88-148.8l147.07-147.07-52.28-52.09-52.08-52.28-147.07 147.07c-80.81 80.81-147.84 146.88-148.8 146.88-2.68 0-152.24-149.76-152.24-152.44 0-1.15 1.72-6.32 4.02-11.3 9.58-21.83 13.98-63.77 9.19-90.2-6.32-36.58-23.75-68.75-50.75-94.79-22.41-21.26-45.58-34.66-72.58-41.94-19.73-5.16-54.01-6.69-72.96-3.05zm733.64.95c-4.6 2.3-20.87 17.04-41.56 37.92l-34.09 34.09 52.28 52.28 52.09 52.09 34.85-34.85c22.02-22.21 36-37.73 37.92-42.13 3.64-9 3.64-18.96 0-27.96-4.02-9.58-60.51-66.64-70.86-71.43-9.75-4.6-20.86-4.6-30.63-.01z"/></svg>