<svg xmlns="http://www.w3.org/2000/svg" viewBox="0 0 1000 1000" enable-background="new 0 0 1000 1000" ><path fill="red" d="M581.85 300.64c-57.57 2.13-99.78 5.97-111.94 10.02-19.4 6.61-36.03 22.17-43.92 41.15-1.92 4.05-5.33 18.98-7.89 33.05-4.26 23.67-4.69 32.41-4.69 115.14 0 77.18.64 92.75 3.84 113 5.33 30.92 10.24 43.5 22.81 57.14 16.42 17.91 27.93 22.17 73.99 26.44 31.56 3.2 62.69 3.84 184.01 3.84 212.15 0 239.87-2.98 263.75-29.42 10.45-11.73 16.84-26.86 20.68-49.68 10.02-58.21 10.02-186.78 0-242.85-4.26-23.24-10.88-38.17-22.39-50.11-16.63-17.06-31.77-21.11-93.6-25.59-40.94-2.98-227.93-4.26-284.65-2.13zm-5.33 88.48v18.12h-40.52l-.43 111.3-.64 111.51-19.62.64-19.83.64v-224.09h-40.52v-36.24h121.54v18.12zm170.57 23.67v41.79l8.74-7.68c10.45-9.59 16.21-11.94 28.78-11.94 11.73 0 18.98 4.48 24.95 15.78 4.48 8.31 4.69 11.51 5.33 75.27.43 45.84 0 70.57-1.71 78.89-6.18 29.21-33.9 36.89-57.14 15.56-3.84-3.41-7.46-6.4-8.1-6.4-.43 0-.85 3.84-.85 8.53v8.53h-34.12v-260.12h34.12v41.79zm177.4 29.64c6.4 4.48 11.09 10.23 15.56 19.19 6.18 12.15 6.4 14.29 7.25 45.2l.64 32.62h-70.78999999999999v21.75c0 28.57 3.41 36.67 16.2 37.53 12.15.85 16.42-4.48 17.48-22.17l.85-13.65h35.82v14.29c-.21 24.52-9.17 41.15-26.44 49.47-30.28 14.71-64.82 1.71-75.27-28.15-3.41-9.59-3.84-18.55-3.84-65.46 0-62.04 1.49-70.15 15.56-83.79 11.94-11.73 20.04-14.5 40.3-13.86 15.38.63 18.36 1.27 26.68 7.03zm-307.46 72.28c0 42.64.64 79.1 1.28 81.02 2.13 5.76 12.79 4.05 21.11-3.2l7.46-6.61v-148.82h36.24l-.43 96.37-.64 96.59-17.48.64-17.7.64v-21.11l-8.96 8.32c-23.45 21.53-50.32 18.12-55.22-6.82-.85-5.12-1.71-46.48-1.92-92.11v-82.51h36.24v77.6zM752.64 471.43l-5.54 4.26v116.63l5.54 3.41c3.2 2.34 8.53 3.41 13.22 2.98 12.58-1.07 13.22-3.84 13.22-65.24 0-53.09-.85-60.55-7.25-64.82-4.48-2.98-13.44-1.7-19.19 2.78zM885.26 469.29c-4.69 2.56-8.1 14.93-8.1 29v11.3h34.54l-.64-16.84c-.64-12.79-1.92-17.91-4.91-21.32-4.26-4.91-14.71-5.97-20.89-2.14z"/><path fill="#eeeed1" d="M10.43 370.36c6.82 17.48 32.62 94.88 39.45 118.55l8.53 29.64v110.44h38.38v-102.98l23.45-77.4c13.01-42.64 23.45-78.46 23.45-79.74 0-1.28-7.46-2.13-19.19-2.13h-18.98l-2.13 7.89c-1.07 4.48-7.25 27.72-13.22 51.6-6.18 23.88-11.73 42.22-12.37 40.51-.64-1.71-6.82-24.52-14.07-50.96l-13-47.98-20.89-.64c-19.41-.64-20.9-.21-19.41 3.2zM174.39 436.88c-11.09 5.12-21.54 17.7-25.37 30.92-3.84 13.01-4.48 107.89-.85 124.94 4.9 23.45 24.09 38.38 48.61 38.38 17.48 0 28.78-4.9 39.02-16.84 12.15-14.29 13.43-21.96 13.43-83.37 0-46.48-.64-55.86-3.84-65.24-4.26-12.37-15.78-24.73-27.51-29.64-10.86-4.48-32.61-4.05-43.49.85zm32.63 30.92l5.97 5.12v58.63c0 54.58-.21 58.85-4.05 63.11-4.48 4.9-13.86 5.97-20.47 2.34-7.04-3.63-8.53-16.2-8.31-66.1 0-52.02 1.49-60.98 10.45-65.46 7.45-3.82 9.58-3.4 16.41 2.36zM278.44 522.81c.85 95.52 1.28 99.36 12.58 105.12 13.01 6.82 29.42 2.77 44.35-10.66l8.74-7.89v19.62h36.24v-194.02h-36.24v150.96l-7.46 6.61c-8.32 7.25-18.98 8.96-21.11 3.2-.64-1.92-1.28-38.81-1.28-82.09v-78.68h-36.46l.64 87.83z"/></svg>
