<svg xmlns="http://www.w3.org/2000/svg" viewBox="0 0 1000 1000" enable-background="new 0 0 1000 1000"><path d="M705 713.7c2.6 4.3 5.9 8.1 9.8 11.2 2.2 2.6 4.3 5.2 6.4 7.9l9.7.1c3.2.8 6.6 1.2 10.1 1.2 23.3 0 42.1-19 42.1-42.4l-.4-3.9c0-6.3-1.4-12.3-3.8-17.6l.6-.3c-.5-.7-1.1-1.3-1.6-1.9-3.2-6.1-7.9-11.4-13.6-15.3-39.4-42.3-87.4-76.4-141.1-99.7 77.8-53.6 128.8-143.6 128.8-245.5 0-164.3-132.3-297.5-295.5-297.5s-295.6 133.2-295.6 297.5c0 102 51 192 128.8 245.6-133 57.7-230.7 182.2-251.2 331.5-1.5 4.4-2.4 9.1-2.4 14l.3 3.3v.1l.1.5c0 23.4 18.9 42.4 42.1 42.4 23.3 0 42.2-19 42.2-42.4v-.5h.8c19.5-162 152.4-288.7 316.4-297.7 6.1.4 12.3.6 18.5.6 6.2 0 12.4-.2 18.5-.6 90.9 5 172.2 46.1 230 109.4zm-248.6-193.7c-116.6 0-211.1-95.1-211.1-212.5s94.5-212.5 211.1-212.5 211.1 95.1 211.1 212.5-94.5 212.5-211.1 212.5zm495.2 226.5c-16.5-16.6-43.1-16.6-59.6 0l-140.2 140.4-55.7-55.6c-16.4-16.6-43.1-16.6-59.6 0-16.4 16.6-16.4 43.4 0 60l78.3 78.1c1.7 2.9 3.9 5.7 6.4 8.2 8.5 8.5 19.6 12.6 30.7 12.4 11.1.2 22.3-3.9 30.7-12.4 2.5-2.5 4.7-5.3 6.4-8.3l162.6-162.9c16.4-16.5 16.4-43.4 0-59.9z"/></svg>