<svg xmlns="http://www.w3.org/2000/svg" viewBox="0 0 50 50"><path d="M23.7 50h2.4c13.4-.6 24-11.5 24-25S39.6.6 26.1 0h-2.4C10.4.7 0 11.7 0 25s10.4 24.3 23.7 25zM8.6 41.2c1.6-1.2 3.3-2.1 5.1-2.9 1.7 3.6 4.1 6.8 7.1 9.5-4.6-1-8.9-3.2-12.2-6.6zm15.5 6.7c-3.7-2.8-6.6-6.3-8.6-10.3 2.7-1 5.6-1.6 8.6-1.7v12zm0-14c-3.2.1-6.4.8-9.3 1.9-1.1-2.8-1.8-5.8-2-8.9h11.3v7zm0-9H12.7c0-3.2.5-6.3 1.6-9.3 3.1 1.2 6.5 1.9 9.8 2.1v7.2zm4.8 22.9c3.2-2.8 5.6-6.1 7.4-9.9 1.9.8 3.8 1.8 5.5 3-3.5 3.6-8 6-12.9 6.9zm14.2-8.4c-1.9-1.3-3.9-2.4-6-3.3 1.1-3 1.8-6.1 2-9.3h9c-.4 4.6-2.1 9-5 12.6zm.7-27.9c2.8 3.9 4.3 8.5 4.3 13.3h-9c0-3.3-.5-6.5-1.6-9.6 2.2-.9 4.3-2.2 6.3-3.7zM42.6 10c-1.8 1.3-3.7 2.5-5.8 3.4-1.7-4.2-4.4-8.1-7.9-11.2 5.3.9 10.1 3.7 13.7 7.8zM26 2.4c4 3.1 7.1 7.1 9 11.8-2.9 1-5.9 1.6-9 1.7V2.4zm0 15.3c3.3-.1 6.6-.7 9.7-1.8.9 2.9 1.4 5.9 1.5 8.9H26.1v-7.1zm0 9.1h11.1c-.2 3-.8 5.9-1.9 8.7-3-1-6.1-1.5-9.2-1.6v-7.1zm0 9c2.9.1 5.7.5 8.4 1.4-1.9 4-4.8 7.6-8.4 10.4V35.8zM24.1 2.1v13.6c-3.2-.1-6.2-.8-9.2-2 1.9-4.5 5.1-8.5 9.2-11.6zm-3.3.2c-3.3 3-6 6.7-7.7 10.7-1.9-.9-3.7-2-5.4-3.3 3.5-3.9 8.1-6.5 13.1-7.4zM6.5 11.2c1.8 1.4 3.8 2.7 5.9 3.6-1.1 3.2-1.7 6.6-1.7 10H1.9c.1-4.9 1.7-9.6 4.6-13.6zM2 26.8h8.8c.2 3.4.9 6.6 2.1 9.7-2 .9-3.9 2-5.6 3.3-3.1-3.8-4.9-8.2-5.3-13z"/></svg>