<svg id="Слой_1" data-name="Слой 1" xmlns="http://www.w3.org/2000/svg" viewBox="0 0 249.06 39.39">
  <title>LY-v2</title>
  <path d="M203.45,13a3.63,3.63,0,0,0-2.7-.91,4.47,4.47,0,0,0-2.23.55,4.61,4.61,0,0,0-1.62,1.52v4.11h7.44V16A4.27,4.27,0,0,0,203.45,13Z" style="fill: none;stroke: #1d1d1b;stroke-linecap: round;stroke-linejoin: round"/>
  <path d="M181.27,12a3.2,3.2,0,0,0-2.6,1.26,6.19,6.19,0,0,0-1.27,3.19l0,.09H185v-.44a4.55,4.55,0,0,0-.92-3A3.37,3.37,0,0,0,181.27,12Z" style="fill: none;stroke: #1d1d1b;stroke-linecap: round;stroke-linejoin: round"/>
  <polygon points="132.56 23.04 132.67 23.04 133 21.49 133.98 18.24 131.24 18.24 132.25 21.49 132.56 23.04" style="fill: none;stroke: #1d1d1b;stroke-linecap: round;stroke-linejoin: round"/>
  <polygon points="63.83 22.19 63.94 22.19 65.18 18.24 62.76 18.24 63.41 20.29 63.83 22.19" style="fill: none;stroke: #1d1d1b;stroke-linecap: round;stroke-linejoin: round"/>
  <path d="M164,13a3.63,3.63,0,0,0-2.7-.91,4.47,4.47,0,0,0-2.23.55,4.61,4.61,0,0,0-1.62,1.52v4.11h7.44V16A4.27,4.27,0,0,0,164,13Z" style="fill: none;stroke: #1d1d1b;stroke-linecap: round;stroke-linejoin: round"/>
  <path d="M244.31,18.23a8.16,8.16,0,0,0-1.12-4.48,4.07,4.07,0,0,0-6.71,0,8.42,8.42,0,0,0-1.09,4.48h8.93Z" style="fill: none;stroke: #1d1d1b;stroke-linecap: round;stroke-linejoin: round"/>
  <path d="M28.84,27.1a3,3,0,0,0,2.44,1,5.49,5.49,0,0,0,2.59-.55,4,4,0,0,0,1.64-1.61V21.52H28V23.6A5.7,5.7,0,0,0,28.84,27.1Z" style="fill: none;stroke: #1d1d1b;stroke-linecap: round;stroke-linejoin: round"/>
  <path d="M236.47,26.41a4.11,4.11,0,0,0,6.71,0,8.26,8.26,0,0,0,1.13-4.53v-.36h-8.93v.36A8.47,8.47,0,0,0,236.47,26.41Z" style="fill: none;stroke: #1d1d1b;stroke-linecap: round;stroke-linejoin: round"/>
  <polygon points="84.86 31.21 100.89 31.21 100.89 27.78 89.13 27.78 89.13 21.52 84.86 21.52 84.86 31.21" style="fill: none;stroke: #1d1d1b;stroke-linecap: round;stroke-linejoin: round"/>
  <rect x="104.07" y="21.52" width="4.27" height="9.69" style="fill: none;stroke: #1d1d1b;stroke-linecap: round;stroke-linejoin: round"/>
  <polygon points="9.24 22 9.24 31.21 13.49 31.21 13.49 22.23 13.87 21.52 8.98 21.52 9.24 22" style="fill: none;stroke: #1d1d1b;stroke-linecap: round;stroke-linejoin: round"/>
  <path d="M114.18,25.87a6,6,0,0,0,1.34,4.33,4.9,4.9,0,0,0,3.69,1.38,7.23,7.23,0,0,0,1.56-.17,4.9,4.9,0,0,0,1.3-.47l-.46-3.13A4.17,4.17,0,0,1,121,28a3.78,3.78,0,0,1-.69.06,1.85,1.85,0,0,1-1.35-.5,2.29,2.29,0,0,1-.51-1.68V21.52h-4.25Z" style="fill: none;stroke: #1d1d1b;stroke-linecap: round;stroke-linejoin: round"/>
  <polygon points="17.6 2.33 11.42 14.77 5.26 2.33 0.5 2.33 8.98 18.24 13.87 18.24 22.37 2.33 17.6 2.33" style="fill: none;stroke: #1d1d1b;stroke-linecap: round;stroke-linejoin: round"/>
  <rect x="23.77" y="8.9" width="4.25" height="9.33" style="fill: none;stroke: #1d1d1b;stroke-linecap: round;stroke-linejoin: round"/>
  <rect x="44.25" y="21.52" width="4.27" height="9.69" style="fill: none;stroke: #1d1d1b;stroke-linecap: round;stroke-linejoin: round"/>
  <rect x="144.17" y="0.5" width="4.27" height="3.74" style="fill: none;stroke: #1d1d1b;stroke-linecap: round;stroke-linejoin: round"/>
  <polygon points="213.07 31.21 217.33 31.21 217.33 22.89 219.24 22.89 224.9 31.21 229.86 31.21 223.13 21.52 213.07 21.52 213.07 31.21" style="fill: none;stroke: #1d1d1b;stroke-linecap: round;stroke-linejoin: round"/>
  <rect x="204.34" y="21.52" width="4.27" height="9.69" style="fill: none;stroke: #1d1d1b;stroke-linecap: round;stroke-linejoin: round"/>
  <rect x="144.17" y="21.52" width="4.27" height="9.69" style="fill: none;stroke: #1d1d1b;stroke-linecap: round;stroke-linejoin: round"/>
  <path d="M35.52,25.94a4,4,0,0,1-1.64,1.61,5.49,5.49,0,0,1-2.59.55,3,3,0,0,1-2.44-1A5.7,5.7,0,0,1,28,23.6V21.52H23.77v2q0,4.11,1.72,6.06a6,6,0,0,0,4.78,2,6.06,6.06,0,0,0,3.16-.82,6.51,6.51,0,0,0,2.27-2.33l.35,2.78h3.73V21.52H35.52Z" style="fill: none;stroke: #1d1d1b;stroke-linecap: round;stroke-linejoin: round"/>
  <rect x="104.07" y="0.5" width="4.27" height="3.74" style="fill: none;stroke: #1d1d1b;stroke-linecap: round;stroke-linejoin: round"/>
  <rect x="153.18" y="21.52" width="4.27" height="9.69" style="fill: none;stroke: #1d1d1b;stroke-linecap: round;stroke-linejoin: round"/>
  <rect x="192.63" y="21.52" width="4.27" height="9.69" style="fill: none;stroke: #1d1d1b;stroke-linecap: round;stroke-linejoin: round"/>
  <path d="M172.92,22.14a9.72,9.72,0,0,0,2.4,6.79,8.27,8.27,0,0,0,6.44,2.65,11.88,11.88,0,0,0,4.11-.65,8.83,8.83,0,0,0,2.85-1.61l-1.37-2.8A9.68,9.68,0,0,1,185,27.73a9.15,9.15,0,0,1-3,.42,4.2,4.2,0,0,1-3.38-1.44,6,6,0,0,1-1.33-3.7l0-.09h11.87V21.52H172.92Z" style="fill: none;stroke: #1d1d1b;stroke-linecap: round;stroke-linejoin: round"/>
  <rect x="164.89" y="21.52" width="4.27" height="9.69" style="fill: none;stroke: #1d1d1b;stroke-linecap: round;stroke-linejoin: round"/>
  <rect x="144.17" y="8.9" width="4.27" height="9.33" style="fill: none;stroke: #1d1d1b;stroke-linecap: round;stroke-linejoin: round"/>
  <path d="M167.5,10.35a6,6,0,0,0-4.63-1.8,6.26,6.26,0,0,0-3.19.82,6.8,6.8,0,0,0-2.35,2.28l-.25-2.74h-3.9v9.33h4.27V14.12a4.61,4.61,0,0,1,1.62-1.52A4.47,4.47,0,0,1,161.3,12,3.63,3.63,0,0,1,164,13a4.27,4.27,0,0,1,.89,3v2.23h4.27V16Q169.16,12.15,167.5,10.35Z" style="fill: none;stroke: #1d1d1b;stroke-linecap: round;stroke-linejoin: round"/>
  <polygon points="136.78 8.9 133.98 18.24 137.88 18.24 141.19 8.9 136.78 8.9" style="fill: none;stroke: #1d1d1b;stroke-linecap: round;stroke-linejoin: round"/>
  <path d="M187.17,10.88a7.43,7.43,0,0,0-5.9-2.33,7.53,7.53,0,0,0-6,2.72,10.1,10.1,0,0,0-2.38,6.88v.09h16.29V17.13A9.12,9.12,0,0,0,187.17,10.88ZM185,16.51h-7.54l0-.09a6.19,6.19,0,0,1,1.27-3.19,3.2,3.2,0,0,1,2.6-1.26,3.37,3.37,0,0,1,2.79,1.14,4.55,4.55,0,0,1,.92,3Z" style="fill: none;stroke: #1d1d1b;stroke-linecap: round;stroke-linejoin: round"/>
  <polygon points="133 24.77 132.67 26.32 132.56 26.32 132.25 24.77 131.24 21.52 127.28 21.52 130.74 31.21 134.44 31.21 137.88 21.52 133.98 21.52 133 24.77" style="fill: none;stroke: #1d1d1b;stroke-linecap: round;stroke-linejoin: round"/>
  <path d="M244.31,21.88a8.26,8.26,0,0,1-1.12,4.53,4.11,4.11,0,0,1-6.71,0,8.47,8.47,0,0,1-1.09-4.53v-.36h-4.27v.37a10.34,10.34,0,0,0,2.32,7,8.94,8.94,0,0,0,12.8,0,10.32,10.32,0,0,0,2.34-7v-.37h-4.25Z" style="fill: none;stroke: #1d1d1b;stroke-linecap: round;stroke-linejoin: round"/>
  <rect x="35.52" y="8.9" width="4.27" height="9.33" style="fill: none;stroke: #1d1d1b;stroke-linecap: round;stroke-linejoin: round"/>
  <path d="M206.95,10.35a6,6,0,0,0-4.63-1.8,6.26,6.26,0,0,0-3.19.82,6.8,6.8,0,0,0-2.35,2.28l-.25-2.74h-3.9v9.33h4.27V14.12a4.61,4.61,0,0,1,1.62-1.52,4.47,4.47,0,0,1,2.23-.55,3.63,3.63,0,0,1,2.7.91,4.27,4.27,0,0,1,.89,3v2.23h4.27V16Q208.61,12.15,206.95,10.35Z" style="fill: none;stroke: #1d1d1b;stroke-linecap: round;stroke-linejoin: round"/>
  <polygon points="228.93 8.9 223.9 8.9 219.1 16.18 217.33 16.18 217.33 0.5 213.07 0.5 213.07 18.24 223.13 18.24 222.65 17.55 228.93 8.9" style="fill: none;stroke: #1d1d1b;stroke-linecap: round;stroke-linejoin: round"/>
  <path d="M239.81,8.55a8,8,0,0,0-6.38,2.72,10.36,10.36,0,0,0-2.32,7h4.27a8.42,8.42,0,0,1,1.09-4.48,4.07,4.07,0,0,1,6.71,0,8.16,8.16,0,0,1,1.13,4.48h4.25a10.27,10.27,0,0,0-2.34-7A8,8,0,0,0,239.81,8.55Z" style="fill: none;stroke: #1d1d1b;stroke-linecap: round;stroke-linejoin: round"/>
  <polygon points="59.79 8.9 55.13 8.9 58.56 18.24 62.76 18.24 59.79 8.9" style="fill: none;stroke: #1d1d1b;stroke-linecap: round;stroke-linejoin: round"/>
  <path d="M63.94,25.48h-.11l-.42-1.9-.65-2.06H58.56L62,31l-.7,1.72a6.72,6.72,0,0,1-1.13,1.83,2.34,2.34,0,0,1-1.85.79l-.63,0-.65-.05-.47,3.3q.56.14,1.17.25a6.64,6.64,0,0,0,1.13.11,5.18,5.18,0,0,0,3.88-1.41,9.77,9.77,0,0,0,2.13-3.39l4.52-12.57H65.18Z" style="fill: none;stroke: #1d1d1b;stroke-linecap: round;stroke-linejoin: round"/>
  <path d="M49.82,13.21a3.83,3.83,0,0,1,2.08-.53l1.83.07.51-4a5.26,5.26,0,0,0-.62-.15,4,4,0,0,0-.72-.06,4.32,4.32,0,0,0-2.61.83,6.1,6.1,0,0,0-1.85,2.29L48.15,8.9h-3.9v9.33h4.27V14.7A3.47,3.47,0,0,1,49.82,13.21Z" style="fill: none;stroke: #1d1d1b;stroke-linecap: round;stroke-linejoin: round"/>
  <polygon points="68.11 8.9 65.18 18.24 69.42 18.24 72.78 8.9 68.11 8.9" style="fill: none;stroke: #1d1d1b;stroke-linecap: round;stroke-linejoin: round"/>
  <polygon points="128.36 8.9 123.95 8.9 127.28 18.24 131.24 18.24 128.36 8.9" style="fill: none;stroke: #1d1d1b;stroke-linecap: round;stroke-linejoin: round"/>
  <polygon points="121.84 12.07 121.84 8.9 118.43 8.9 118.43 4.28 114.18 4.28 114.18 8.9 111.28 8.9 111.28 12.07 114.18 12.07 114.18 18.24 118.43 18.24 118.43 12.07 121.84 12.07" style="fill: none;stroke: #1d1d1b;stroke-linecap: round;stroke-linejoin: round"/>
  <rect x="104.07" y="8.9" width="4.27" height="9.33" style="fill: none;stroke: #1d1d1b;stroke-linecap: round;stroke-linejoin: round"/>
  <rect x="84.86" y="2.33" width="4.27" height="15.91" style="fill: none;stroke: #1d1d1b;stroke-linecap: round;stroke-linejoin: round"/>
</svg>
