<svg xmlns="http://www.w3.org/2000/svg" viewBox="0 0 1000 1000"><path d="M255.1 306l265.2 649.8c11.5 28.1 43.7 41.7 71.9 30.2l316-129c28.1-11.5 41.7-43.7 30.2-71.9L673.2 135.4c-11.5-28.1-43.7-41.7-71.9-30.2l-316 129c-28.1 11.4-41.6 43.6-30.2 71.8zm354.4-180.9c17.1-7 36.8 1.3 43.8 18.4l265.2 649.8c7 17.1-1.2 36.8-18.4 43.7L584 966c-17.1 7-36.7-1.3-43.8-18.4L275.1 297.8c-7-17.1 1.2-36.7 18.4-43.7l316-129zm-251.5-3c2.6-2.7 4.1-6.2 4-9.9 0-1.7-.3-3.3-.9-4.8-2-5.5-7.4-9.1-13.2-9.1-112.1.6-202.9 92.2-202.3 204.3 0 7.5 6.6 14 14.1 14 3.7 0 7.2-1.5 9.9-4.2 2.6-2.7 4.1-6.2 4.1-9.9-.5-96.7 77.7-175.7 174.4-176.2 3.8 0 7.3-1.5 9.9-4.2zm8.9-84.1c7.7 0 14-6.3 14-14.1 0-1.6-.3-3.3-.9-4.8-2-5.5-7.3-9.1-13.2-9.1-171.4.8-310.1 140.9-309.2 312.3 0 7.6 6.6 14 14.1 13.9 3.7 0 7.2-1.5 9.9-4.2 2.6-2.7 4.1-6.2 4.1-9.9C84.9 166.3 211 38.8 366.9 38z"/></svg>