<svg xmlns="http://www.w3.org/2000/svg" viewBox="0 0 383 222"><path fill="#00dbe1" d="M307.89 208.75l-.2 1h.4l.3-1zM224.7 18.87c-2.1 4.24-4.77 7.19-8.23 10.6-8.78 8.8-17.8 17.5-26.33 26.4-10.79 11.2-21.19 22.5-32 33.7-4 4.19-8.17 8.27-12.37 12.36a12.82 12.82 0 01-14.28 2.61l-.56-.27c-3.39-1.8-5.8-11.53-3.92-13.63 3.64-4.3 5.91-7.39 9.92-11.49 15.93-16.4 32-32.9 48-49.3 7.27-7.4 14.67-14.7 22.07-22.1 3.06-3 9.14-3.21 13.14-.74 3.86 2.33 6.1 8.75 4.56 11.86zM81.13 92.37C65 76.28 48.85 59.85 32.79 43.73c-6.14-6.2-12.32-12.36-18.68-18.5-2.66-2.58-2.72-7.9 3.4-12.28 5.24-3.75 11-1.08 13 .26a3.5 3.5 0 01.48.37Q39.14 21.31 47.23 29q8.48 8.11 16.85 16.31c11.66 11.4 22.94 23 34.48 34.5 9.78 9.8 19.56 19.5 29.22 29.3a6.48 6.48 0 011.5 4.5l.37 91.87c0 2.35 0 8.89-10.65 8.89-10 0-11.53-6.65-11.51-8.89.16-24.66-.56-41.19-1.19-65.05-.07-2.7.22-20.29 0-22.32-.16-1.48-20.39-20.97-25.17-25.74zM373 200.87c0-8.87-7.56-11-10.5-11h2.79c-36.82-.1-60.62-.1-97.34-.1h-3.2a2.42 2.42 0 01-2.51-2.32v-.28c0-53.15-2-148.67-1.43-171C261 9.07 259 5.84 249.66 6c-8 .15-11.43 1.78-11.43 8.79v192.77a3.93 3.93 0 004.07 3.77H366c.14 0-3.66.1-3.52.11 6.6.26 10.84-2.85 10.52-10.57z"/></svg>