<svg xmlns="http://www.w3.org/2000/svg" viewBox="0 0 1000 1000"><path d="M466.84 66.24c-46.98 8.93-84.82 29.12-115.22 61.65-20.2 21.68-35.71 47.41-44.85 74.4l-3.83 10.84-136.27 1.07c-133.29 1.06-136.26 1.06-142 5.53-3.19 2.34-7.86 7.01-10.2 10.2C10 235.67 10 235.88 10 561.34v325.68l5.1 11.05c6.17 13.82 21.47 28.49 35.29 33.8 10.42 4.04 22.11 4.04 450.67 4.04H941.1l11.05-5.1c12.97-5.74 26.78-19.77 33.16-33.8l4.68-9.99V561.34c0-325.46 0-325.67-4.46-331.41-2.34-3.19-7.02-7.86-10.21-10.2-5.74-4.46-8.71-4.46-142-5.53l-136.26-1.06-3.61-10.63c-5.74-16.79-18.71-41.24-29.97-56.76-36.99-49.96-93.32-79.29-157.1-81.42-15.31-.64-29.98 0-39.54 1.91zm68.24 55.48c7.01 1.7 21.68 7.65 32.74 12.97 15.94 7.86 23.38 13.18 36.35 26.15 16.16 15.94 30.19 36.35 32.95 47.41l1.49 5.95H361.4l1.49-5.95c2.76-11.05 16.79-31.46 32.74-47.19 18.28-18.07 38.48-29.97 63.99-37.63 19.76-5.74 55.9-6.59 75.46-1.71zm400.29 137.12c13.61 8.29 15.31 15.94 15.31 70.79 0 55.91-.21 56.76-17.64 73.13-46.99 44.21-187.72 88.64-336.32 106.08-44.43 5.31-144.56 5.31-189.2.21-152.2-17.86-291.02-61.23-340.12-106.08-17.86-16.16-18.07-17.22-18.07-73.76 0-45.49.43-49.96 4.25-57.82 2.55-4.68 7.44-10.42 11.27-12.54 6.59-4.25 13.61-4.25 435.15-4.25 425.8-.01 428.35-.01 435.37 4.24zM76.33 462.92c66.96 33.59 170.49 63.77 269.97 78.87l17.43 2.55.64 42.09c.64 45.92 1.06 47.62 15.31 58.03 5.74 4.47 8.08 4.47 120.32 4.47s114.58 0 120.32-4.47c14.03-10.42 14.67-12.12 15.73-57.61l1.06-41.67 35.08-5.95c95.66-16.15 182.61-42.09 246.6-73.76 15.73-7.87 29.34-14.67 30.4-14.88.85-.43 1.28 96.94 1.06 216.19l-.64 217.05-5.95 5.74-5.74 5.95H62.08l-5.74-5.95-5.95-5.74L49.75 667c-.21-119.26 0-216.83.64-216.83.43-.01 12.12 5.73 25.94 12.75z"/></svg>