<svg xmlns="http://www.w3.org/2000/svg" viewBox="0 0 1000 1000" enable-background="new 0 0 1000 1000"><path d="M500 990c270.6 0 490-219.4 490-490s-219.4-490-490-490-490 219.4-490 490 219.4 490 490 490zm0-80.8c-226 0-409.2-183.2-409.2-409.2s183.2-409.2 409.2-409.2 409.2 183.2 409.2 409.2-183.2 409.2-409.2 409.2zM468.7 329.7h62.6c7.4 0 13.4-6 13.4-13.4v-236.3h-89.5v236.3c.1 7.4 6.1 13.4 13.5 13.4zM468.7 666.3h62.6c7.4 0 13.4 6.1 13.4 13.4v236.3h-89.5v-236.3c.1-7.3 6.1-13.4 13.5-13.4zM332 531.3v-62.6c0-7.4-6-13.4-13.4-13.4h-236.3v89.5h236.3c7.4-.1 13.4-6.1 13.4-13.5zM667.8 531.3v-62.6c0-7.4 6-13.4 13.4-13.4h236.3v89.5h-236.3c-7.4-.1-13.4-6.1-13.4-13.5z"/></svg>