<svg xmlns="http://www.w3.org/2000/svg" viewBox="0 0 327.69 207.47"><path d="M290.19 204.89l-.2 1h.4l.3-1zM191.35 10.8c-3.07 3.51-6 7.09-9.21 10.49-8.15 8.8-16.54 17.5-24.46 26.4-10 11.2-19.68 22.5-29.69 33.7-4.89 5.5-10 10.8-15.14 16.2-2.21 2.3-4.66 1.6-7 .3-3.14-1.8-2.44-4.5-.7-6.6 3.38-4.3 7.11-8.4 10.83-12.5 14.79-16.4 29.7-32.9 44.61-49.3 6.75-7.4 13.62-14.7 20.49-22.1 2.85-3 5.42-4.13 9.14-1.66 3.52 2.33 1.65 4.48 1.13 5.07zM69.11 81.25c-15-16.08-30-32.52-44.89-48.64-5.7-6.2-11.29-12.5-17.35-18.5-2.95-3-3.57-5.66-1.45-8.38a4 4 0 013.2-1.52 4.12 4.12 0 013 1.25q7.55 7.72 15.05 15.44Q34.5 29 42.28 37.21c10.83 11.4 21.31 23 32 34.5 9.08 9.8 18.17 19.5 27.14 29.3a6.86 6.86 0 011.39 4.5l.36 96.62a4.13 4.13 0 01-4.29 4.14l-1.36-.05a4.13 4.13 0 01-4-4.15c.16-24.67-.47-48.88-1.06-72.74-.07-2.7-.8-20.29-1-22.32-.12-1.5-17.91-21.01-22.35-25.76zm258.58 121.98v-.92a4.25 4.25 0 00-4.28-4.25h-1q-51.3-.15-102.4-.1h-1.71a3.6 3.6 0 01-3.59-3.6v-2c0-53.68-.25-160.78-.41-181.64a3.59 3.59 0 00-3.59-3.56H208a3.59 3.59 0 00-3.59 3.59v193.12a3.6 3.6 0 003.59 3.6h115.44a4.24 4.24 0 004.25-4.24z" fill="#03bdbc"/></svg>