<svg xmlns="http://www.w3.org/2000/svg" viewBox="0 0 35 77.7"><path d="M27 75.4l.6-9.2c.1-1-.1-2.3.2-3.2.2-.6.7-1.2 1-1.7l1.1-1.8c-3.9 1.5-8.4 1.9-12.5 1.9S8.8 61 4.9 59.5L6.4 62c.3.5.7 1 .8 1.5.2.7.1 1.6.2 2.4l.3 3.8c.1 1.8 0 3.9.4 5.7.2.8 1 1.2 1.8 1.4 1.9.7 3.9.8 5.9.9 2.6.1 5.4 0 8-.5.6-.2 3.2-.6 3.2-1.8m-2.3-58l1-3.9c.2-.8.3-1.8.7-2.5.7-1 1.7-1.8 2.6-2.7l3.7-3.9c.7-.8 1.5-1.6 2.2-2.3l-1.1-.9c-.2-.1-1-1-1.2-1-.2 0-1 1-1.1 1.2l-5.7 6c-.9 1-2.2 1.9-2.5 3.3-.3 1.3-.6 2.6-1 3.9l-.4 1.8c0 .2-.1.8-.2.9-.2.2-1.2 0-1.5 0h-1.9c-1.5 0-3 0-4.5.1-2.5.1-4.9.2-7.4.5-.7.1-6.9.6-6.3 2.1.3.7 2 .9 2.6 1.1 1.9.4 3.9.6 5.9.8 5.4.5 10.9.5 16.3.1 2.3-.2 4.7-.4 6.9-.8.7-.1 2.8-.4 3.2-1.2.7-2-9.5-2.6-10.3-2.6"/><path d="M23.7 20.8c-.7.1-1.4.1-2 .1-.3 0-.8 0-1.1-.1-.3-.2-.5-.6 0-.8.1.2 0 .2 0 .3 0 .3 3.5.3 3.5 0 0-.1-.1-.1-.2-.1.1-.3.4-.2.5.1.2.4-.4.5-.7.5"/><path d="M34.9 2.1c.6-.6-1.7-2.6-2.3-2-.6.7 1.7 2.6 2.3 2M26.6 45c-.2-1.6 1.9-3 2.8-4.1.2-.2.7-.7.3-.9-.4-.2-1.3.3-1.6.5-.5.3-.9.8-1.3 1.2-1.3 1.8-2 4-2.9 6-.2.4-1.7 4.2-2.5 2.9-.4-.7.4-2.1.7-2.7.5-1.2 1.2-2.4 1.5-3.7-1 .7-3.6 2.7-4.3.7-1.3 1.1-3.6 1.2-3.4-1.1-.7 1.2-2.3 2.8-3.8 2-.8-.4-.7-1.5-.5-2.2.2-1.2.7-2.3 1.2-3.4.2-.4.8-1.7 1.4-1.8 1.2-.1-.2 2.4-.4 2.7-.2.5-1.8 3.7-.2 3.3.9-.2 1.8-1.5 2.3-2.2l1.3-2.5c.2-.3 1.3-2 1.5-.9.2.8-.7 2.2-1 2.9-.2.6-1 2.1-.3 2.6.8.6 2-.7 2.2-1.4.4-1.4.8-2.7 1.4-4.1.7-1.8 1.3-3.7 2.2-5.4.2-.3.5-1 .9-1 .6-.1.6.6.6 1-.1 1.4-1 2.9-1.5 4.2-.7 1.6-1.4 3.2-1.9 4.9-.1.3-.5 1.1-.3 1.5.2.4.3.3.8.1 1.8-.6 3-1.8 3.6-3.6.2-.4.3-1.5.8-1.7.9-.5.8.9.7 1.3.8-.9 3.2-2.6 4.3-1.3 1 1.2-.5 2.9-1.3 3.8L28.5 44c-.3.4-.4.5.1.4 1.1 0 3.5-1.6 3.9-2.7.2-.6.2-1.4.2-2.1l.4-3.8 1-9.4c.2-1.9.4-3.8.6-5.8-.5.3-1.2.5-1.7.7-2.4.7-5 .9-7.5 1-4.9.3-9.9.3-14.8.1-2.8-.1-5.7-.3-8.4-1-.7-.2-1.5-.3-2.1-.8.6 5.6 1.2 11.2 1.7 16.8.1 1.2.1 2 .2 2.9.8-2.2 1.7-4.3 3-6.2 1.1-1.5 3.2-3.5 5.3-2.5.9.4 1.7 1.3 2 2.2.2.6-.1 1.6-1 1.2-.9-.4-.7-1.9-1.9-2-1.1-.1-2.2 1-2.8 1.8-1.4 1.9-2.6 4.2-3.1 6.5-.2.8-.4 2 .2 2.7.5.6 1.3.2 1.8-.1 1.4-.8 2.9-2.3 3.4-3.8.2-.7.4-2.2 1.1-2.7 1.1-.7.9 1.2.8 1.7-.4 1.8-1.1 3.6-1.6 5.4-.2.9-.5 3.5-1.6 3.8-1.6.7.3-4 .3-4.5-1.4 1.3-3.1 3.2-5.3 2.1.4 3.4.7 6.8 1.1 10.1.1.7-.1 1.6.4 2 1 .8 2.7 1.2 3.9 1.5 3.2.8 6.6 1 9.9 1 3.1 0 6.3-.3 9.3-1.2.8-.2 1.5-.5 2.2-.8.3-.1.8-.3 1-.5.4-.5.3-1.9.3-2.5.4-3.8.8-7.6 1.3-11.4-.9.9-5.2 3.6-5.5.9"/></svg>