<svg xmlns="http://www.w3.org/2000/svg" viewBox="0 0 1000 1000" enable-background="new 0 0 1000 1000"><path d="M908.3 990h-285.8c-45 0-81.7-36.6-81.7-81.7v-285.8c0-45 36.7-81.7 81.7-81.7h285.8c45 0 81.7 36.6 81.7 81.7v285.8c0 45.1-36.7 81.7-81.7 81.7zm0-367.5h-285.8v285.8h285.9l-.1-285.8zm0-163.3h-285.8c-45 0-81.7-36.6-81.7-81.7v-285.8c0-45 36.7-81.7 81.7-81.7h204.2c22.6 0 40.8 18.3 40.8 40.8 0 22.5-18.3 40.8-40.8 40.8h-204.2v285.8h285.8v-204.1c0-22.6 18.3-40.8 40.8-40.8s40.8 18.3 40.8 40.8v204.2c.1 45-36.6 81.7-81.6 81.7zm-530.8 530.8h-285.8c-45 0-81.7-36.6-81.7-81.7v-285.8c0-45 36.7-81.7 81.7-81.7h285.8c45 0 81.7 36.6 81.7 81.7v285.8c0 45.1-36.7 81.7-81.7 81.7zm0-367.5h-285.8v285.8h285.9l-.1-285.8zm0-163.3h-285.8c-45 0-81.7-36.6-81.7-81.7v-285.8c0-45.1 36.7-81.7 81.7-81.7h285.8c45 0 81.7 36.6 81.7 81.7v285.8c0 45-36.7 81.7-81.7 81.7zm0-367.5h-285.8v285.8h285.9l-.1-285.8z"/></svg>