<svg xmlns="http://www.w3.org/2000/svg" viewBox="0 0 1000 1000" enable-background="new 0 0 1000 1000"><path d="M403.8 11.93c-29.29 8.73-47.72 20.17-69.06 42.29-21.72 22.31-35.89 47.72-42.48 75.65-1.55 6.6-6.4 53.54-10.67 104.36-4.46 50.63-8.34 93.3-8.73 94.47-.58 1.94-9.12 2.52-33.95 2.52h-33.36l-5.63 5.63c-9.12 9.31-7.18 25.22 4.07 31.81 4.46 2.72 10.86 3.3 35.69 3.3h30.26l-.97 7.18c-.58 4.07-12.03 133.46-25.22 287.67-13.38 154.21-24.64 281.46-25.22 282.62-.58 1.94-22.11 2.52-98.35 2.52-89.42 0-97.96.39-101.64 3.49-10.67 8.54-11.44 21.14-1.94 30.65l6.59 6.6h415.3c460.5 0 424.22.97 430.04-12.61 3.69-8.73 1.55-17.46-5.43-23.28l-5.82-4.85h-195.32999999999998l-.97-6.4c-.97-6.01-49.66-566.22-49.66-571.26 0-1.75 7.57-2.33 31.04-2.33 35.69 0 41.12-1.55 45.78-13 3.88-8.92 1.94-16.68-5.43-22.89-5.62-4.85-6.21-4.85-40.54-4.85-19.01 0-34.72-.58-34.72-1.55-.19-.78-1.36-13.97-2.72-29.48-1.55-15.52-2.52-28.32-2.33-28.52.19-.19 72.35 9.12 160.22 20.95 87.87 11.64 163.33 21.14 167.4 21.14 32.2 0 59.94-49.66 59.94-107.66 0-37.83-11.83-73.9-30.46-93.11-10.48-10.67-18.82-14.55-31.42-14.55-5.04.2-83.02 10.09-173.03 22.11-105.72 13.97-163.71 20.95-164.1 19.79-11.64-45-29.68-75.07-59.16-99.7-14.94-12.22-42.48-26.19-60.13-30.26-19.17-4.66-50.01-3.88-67.86 1.55zm73.13 42.28c19.01 6.79 37.44 20.37 49.27 36.27 9.7 13 19.78 35.69 21.92 49.66l1.36 7.76-42.29 5.63c-23.28 2.91-43.84 6.21-45.78 7.37-1.94.97-5.24 4.66-7.18 7.95-3.49 5.43-3.88 9.89-3.88 37.24 0 27.54.39 31.81 3.88 37.44 2.13 3.49 5.82 6.98 8.34 7.95 2.33.97 24.83 4.46 49.85 7.76 25.02 3.49 46.17 6.79 46.75 7.56 1.36 1.36 5.62 46.94 5.62 58v6.4h-250.60000000000002l1.16-10.28c.58-5.43 4.27-45.97 7.95-89.62 3.69-43.84 8.15-86.13 9.89-94.08 9.5-45.39 43.84-79.53 88.06-88.06 12.62-2.32 41.91.4 55.68 5.05zm462.64 96.6c6.4 13 9.31 29.68 9.31 55.28 0 32.01-6.79 60.33-15.52 64.98-2.33 1.36-70.41-6.98-215.51-26.19-116.77-15.52-215.12-28.51-218.42-29.1-6.01-1.16-6.4-1.55-6.4-9.7 0-10.09-4.27-8.73 49.46-15.52 21.34-2.71 115.61-15.32 209.49-28.13 93.88-12.61 173.41-22.7 176.52-22.7 5.05.41 6.6 1.97 11.07 11.08zm-405.99 221.91c-1.75 1.55-229.47 94.27-230.06 93.5-.39-.39.97-20.95 3.1-45.58 2.33-24.64 4.07-45.78 4.07-46.75 0-1.16 41.12-1.94 111.92-1.94 61.5-.01 111.35.38 110.97.77zm38.98 34.53c0 2.52 3.49 42.48 7.57 88.84 4.07 46.36 6.98 84.96 6.21 85.74-1.17 1.36-303.57 127.44-304.16 126.86-.97-.78 16.49-193.4 17.65-194.56 1.55-1.55 267.3-110.76 270.4-110.95 1.17-.2 2.33 1.74 2.33 4.07zm19.4 223.07c0 2.52 3.49 42.48 7.57 88.84 4.07 46.36 7.18 84.96 6.79 85.54-.97 1.55-344.11 144.13-344.89 143.16-.97-1.36 15.91-190.1 17.26-191.46 1.36-1.55 309.59-130.16 311.91-130.35.78 0 1.36 1.94 1.36 4.27zm19.4 221.13c0 1.36 1.75 24.05 4.07 50.63 2.33 26.38 3.88 48.49 3.3 48.88-.58.58-58 .78-127.64.58l-126.47-.58 121.82-50.82c67.12-27.93 122.59-51.01 123.56-51.01.78-.01 1.36 1.16 1.36 2.32z"/></svg>