<svg xmlns="http://www.w3.org/2000/svg" viewBox="0 0 1000 1000"><path d="M500 681.7c-10.4 0-20.5-2.2-27.1-5.9l-452.7-254c-6.3-3.6-10.3-10.3-10.3-17.6 0-7.3 3.9-14 10.3-17.6l452.7-254c12.9-7.3 41-7.4 54.1.1l452.6 253.9c6.4 3.6 10.3 10.3 10.3 17.6 0 7.3-3.9 14-10.3 17.6L527 675.8c-6.5 3.7-16.6 5.9-27 5.9zm-7.3-41.1c.2 0 3.1.7 7.3.7 4.4 0 7.3-.8 8-1.1l420.6-236-421.3-236.3c-.2 0-3.1-.8-7.3-.8-4.4 0-7.3.8-8 1.1l-420.7 236 421.4 236.4zm7.5 232.2c-89.8 0-174-13.9-236.9-39.2-54.2-21.8-86.7-50.2-86.9-76 0-.9-.1-1.7-.2-2.6l-.2-2.6v-268h40.3v266.9c.2 1.6.3 3.2.3 4.8 2.1 4.6 16.8 22.1 61.7 40.1 58.3 23.4 137.1 36.3 221.9 36.3 84.8 0 163.6-12.9 221.9-36.3 45-18.1 59.7-35.6 61.7-40.2l.1-1.8-.1-269.8h40.3v271.1l-.1 2c-.3 25.8-32.8 54.2-86.9 76-62.9 25.4-147.1 39.3-236.9 39.3zm455.9-43.1c-11.1 0-20.2-9-20.2-20.1V497.7c0-11.1 9-20.2 20.2-20.2 11.1 0 20.1 9 20.1 20.2v311.9c.1 11.1-8.9 20.1-20.1 20.1z"/></svg>