<svg xmlns="http://www.w3.org/2000/svg" viewBox="0 0 1000 1000"><path d="M395 132.5H220v464.8c0 115-39.4 147.1-108.1 147.1-32.2 0-61.1-5.5-83.7-13.3L10 867.3C42.2 878.4 91.5 885 130.1 885 287.7 885 395 810.9 395 598.5v-466zM776.6 115C607.2 115 500 211.2 500 338.5c0 109.6 82.6 178.1 202.7 222.4 86.8 31 121.2 58.6 121.2 104 0 49.8-39.7 81.9-114.7 81.9-69.7 0-133-23.3-175.9-46.5L500 838.5c40.8 23.3 116.9 46.5 199.4 46.5C897.8 885 990 778.8 990 653.7c0-106.2-59-174.8-186.5-223.5-94.4-37.6-134-58.6-134-106.2 0-37.6 34.3-71.9 105.1-71.9 69.7 0 117.6 23.4 145.5 37.8l41.8-140C918.1 130.8 859.2 115 776.6 115z"/></svg>