<svg xmlns="http://www.w3.org/2000/svg" viewBox="0 0 50 50"><path d="M49.1 22.8L27.2.9c-1.3-1.3-3.3-1.3-4.6 0l-4.5 4.5 5.8 5.8c1.3-.5 2.9-.1 3.9.9 1.1 1.1 1.4 2.6.9 4l5.5 5.5c1.3-.5 2.9-.2 4 .9 1.5 1.5 1.5 3.9 0 5.4-1.5 1.5-3.9 1.5-5.4 0-1.1-1.1-1.4-2.8-.8-4.2l-5.2-5.2v13.6c.4.2.7.4 1 .7 1.5 1.5 1.5 3.9 0 5.4-1.5 1.5-3.9 1.5-5.4 0-1.5-1.5-1.5-3.9 0-5.4.4-.4.8-.6 1.3-.8V18.4c-.5-.2-.9-.5-1.3-.8-1.1-1.1-1.4-2.8-.8-4.2l-5.7-5.7-15 15C-.4 24-.4 26 .9 27.3l21.8 21.8c1.3 1.3 3.3 1.3 4.6 0L49 27.4c1.3-1.3 1.3-3.4.1-4.6z"/></svg>